<svg width="861" height="719" viewBox="0 0 861 719" fill="none" xmlns="http://www.w3.org/2000/svg">
<g clip-path="url(#clip0_213_216)">
<path d="M435.735 160.527C428.066 147.843 418.978 134.299 404.746 130.158C388.264 125.361 371.333 134.889 356.971 144.292C314.022 172.412 272.661 202.886 233.078 235.575L233.121 236.068C263.938 233.942 294.755 231.817 325.572 229.692C347.837 228.157 370.868 226.409 390.544 215.876C398.01 211.88 405.289 206.541 413.749 206.169C424.261 205.706 433.427 213.048 440.63 220.718C483.237 266.089 495.567 335.472 543.368 375.334C513.226 300.999 477.236 229.171 435.735 160.527Z" fill="url(#paint0_linear_213_216)"/>
<path d="M697.637 545.355C692.925 539.406 691 538.012 686.352 532.008C648.509 483.064 612.94 432.466 579.644 380.215C557.028 344.729 535.534 308.561 515.161 271.711C505.462 254.192 496.029 236.536 486.862 218.742C479.748 204.946 472.793 191.066 465.997 177.104C464.054 173.117 462.165 169.111 460.286 165.095C455.858 155.653 451.512 146.165 446.846 136.851C441.53 126.235 435.058 115.106 425.294 107.974C420.851 104.595 415.537 102.55 409.975 102.079C402.027 101.566 394.693 104.848 387.8 108.432C337.361 134.733 290.14 167.708 247.43 205.23C204.61 242.836 166.336 285.322 133.388 331.821C132.38 333.26 129.997 331.885 131.014 330.437C135.02 324.772 139.106 319.167 143.271 313.624C195.06 244.746 258.56 185.515 330.871 138.638C343.036 130.755 355.43 123.24 368.053 116.096C374.415 112.493 380.805 108.936 387.305 105.599C393.676 102.327 400.441 99.3839 407.72 99.2739C432.49 98.8889 445.316 126.941 454.125 145.816C456.894 151.757 459.696 157.679 462.532 163.583C473.248 185.997 484.377 208.206 495.919 230.211C503.042 243.797 510.321 257.303 517.756 270.73C540.894 312.542 565.487 353.508 591.534 393.627C626.04 446.77 660.271 493.716 699.58 543.412C700.662 544.787 698.728 546.749 697.637 545.355Z" fill="#690979"/>
<path d="M244.982 191.378C243.543 189.774 242.113 188.169 240.664 186.565C229.242 173.933 216.985 161.447 201.3 154.205C193.821 150.642 185.656 148.75 177.373 148.658C168.811 148.686 160.441 150.932 152.53 154.076C148.789 155.57 145.131 157.266 141.529 159.072C137.413 161.144 133.37 163.354 129.346 165.581C121.792 169.761 114.335 174.125 106.977 178.672C92.337 187.72 78.1551 197.459 64.4318 207.888C57.3177 213.297 50.3505 218.883 43.53 224.646C37.1863 230 30.9709 235.497 24.8839 241.138C23.5822 242.339 21.6386 240.396 22.9403 239.195C24.5445 237.7 26.1672 236.215 27.7898 234.749C32.3735 230.605 37.0305 226.541 41.761 222.556C50.3872 215.277 59.2367 208.279 68.3095 201.563C82.4182 191.112 97.0125 181.37 112.092 172.337C119.628 167.827 127.268 163.506 135.011 159.375C137.349 158.128 139.714 156.909 142.106 155.754C147.535 153.015 153.176 150.719 158.974 148.887C167.187 146.231 175.877 145.377 184.45 146.385C192.728 147.589 200.703 150.348 207.955 154.516C223.356 163.124 235.301 176.435 246.925 189.425C248.099 190.745 246.164 192.698 244.982 191.378Z" fill="#57007B"/>
<path d="M560.542 322.285L597.447 308.787L615.77 302.085C621.738 299.902 627.691 297.418 633.86 295.855C639.221 294.323 644.913 294.396 650.234 296.063C654.978 297.819 659.321 300.512 663.005 303.98C666.768 307.445 670.269 311.184 673.48 315.166C677.469 319.961 681.399 324.805 685.347 329.633C701.641 349.561 717.829 369.574 733.91 389.675C749.991 409.775 765.964 429.96 781.83 450.231C797.735 470.551 813.53 490.956 829.216 511.446C831.137 513.957 833.057 516.468 834.975 518.981C836.035 520.369 838.425 519 837.35 517.593C821.548 496.896 805.637 476.285 789.615 455.758C773.554 435.182 757.382 414.693 741.099 394.292C724.816 373.891 708.423 353.579 691.92 333.355C687.809 328.316 683.691 323.283 679.566 318.256C676.086 314.015 672.646 309.729 668.829 305.782C661.824 298.537 653.072 292.134 642.595 291.96C636.435 291.858 630.474 293.813 624.751 295.883C618.581 298.115 612.426 300.389 606.265 302.642L569.102 316.235L559.811 319.633C558.163 320.236 558.875 322.895 560.542 322.285Z" fill="#57007B"/>
<path d="M196.443 170.1C177.689 160.462 153.672 162.349 136.438 174.391C169.31 180.063 201.822 187.651 233.809 197.117C220.526 189.333 210.136 177.138 196.443 170.1Z" fill="url(#paint1_linear_213_216)"/>
<path d="M136.253 174.358L132.643 177.293C133.864 176.266 135.134 175.303 136.438 174.391C136.376 174.381 136.315 174.369 136.253 174.358Z" fill="#F2F2F2"/>
<path d="M661.615 322.42C657.982 317.998 654.055 313.367 648.621 311.571L643.548 311.771C682.166 380.01 734.322 439.637 796.815 486.992C751.748 432.135 706.682 377.277 661.615 322.42Z" fill="#F2F2F2"/>
<path d="M346.15 285.94C348.497 294.47 353.786 301.894 361.081 306.899C363.901 308.819 367.238 310.661 368.202 313.934C368.71 316.02 368.397 318.221 367.329 320.084C366.262 321.922 364.965 323.616 363.468 325.125L363.331 325.637C356.332 321.49 349.674 316.244 345.809 309.086C341.943 301.928 341.403 292.547 346.15 285.94Z" fill="#F2F2F2"/>
<path d="M579.15 488.941C581.497 497.47 586.786 504.894 594.081 509.899C596.901 511.819 600.238 513.661 601.202 516.934C601.71 519.02 601.397 521.221 600.329 523.084C599.262 524.922 597.965 526.616 596.468 528.125L596.331 528.637C589.332 524.49 582.674 519.244 578.809 512.086C574.943 504.928 574.403 495.547 579.15 488.941Z" fill="#F2F2F2"/>
<path d="M114.15 474.941C116.497 483.47 121.786 490.894 129.081 495.899C131.901 497.819 135.238 499.661 136.202 502.934C136.71 505.02 136.397 507.221 135.329 509.084C134.262 510.922 132.965 512.616 131.468 514.125L131.331 514.637C124.332 510.49 117.674 505.244 113.809 498.086C109.943 490.928 109.403 481.547 114.15 474.941Z" fill="#F2F2F2"/>
<path d="M649.249 102C677.416 102 700.249 79.1665 700.249 51C700.249 22.8335 677.416 0 649.249 0C621.083 0 598.249 22.8335 598.249 51C598.249 79.1665 621.083 102 649.249 102Z" fill="#690979"/>
<path d="M741.284 11.8704C716.568 8.52949 688.349 21.8891 681.943 45.994C680.329 41.7081 677.394 38.0465 673.562 35.538C669.73 33.0295 665.2 31.8041 660.626 32.0388C656.052 32.2735 651.672 33.9562 648.117 36.8437C644.562 39.7312 642.017 43.6741 640.85 48.1027L643.679 50.1293C696.647 61.5836 751.476 61.3357 804.338 49.403C787.145 31.334 766.001 15.2113 741.284 11.8704Z" fill="#EBEBEB"/>
<path d="M635.284 79.8704C610.568 76.5295 582.349 89.8891 575.943 113.994C574.329 109.708 571.394 106.046 567.562 103.538C563.73 101.03 559.2 99.8041 554.626 100.039C550.052 100.274 545.672 101.956 542.117 104.844C538.562 107.731 536.017 111.674 534.85 116.103L537.679 118.129C590.647 129.584 645.476 129.336 698.338 117.403C681.145 99.334 660.001 83.2113 635.284 79.8704Z" fill="#EAEAEA"/>
<path d="M851.011 92.7283C850.909 92.7285 850.807 92.7127 850.709 92.6814C586.303 9.06326 353.265 19.9978 204.33 43.8953C184.061 47.1463 163.738 50.9011 143.926 55.0564C138.868 56.116 133.62 57.2517 128.329 58.4343C122.01 59.8416 115.775 61.2908 109.797 62.74C107.215 63.3513 104.683 63.9676 102.202 64.5886C98.4439 65.5164 94.6304 66.4832 90.5425 67.5456C85.9746 68.7234 81.3335 69.9587 76.7451 71.2175C76.7283 71.2234 76.7112 71.2283 76.6939 71.2322L76.6943 71.2332C71.5117 72.6482 66.3564 74.1043 61.3711 75.5584C58.6729 76.3377 56.0674 77.1062 53.5718 77.865C53.293 77.9422 53.0459 78.0164 52.7954 78.0925L52.2593 78.2556C51.9487 78.3503 51.6421 78.4431 51.3355 78.531L51.3159 78.5369L51.3164 78.5379L50.5049 78.7899C49.5371 79.0829 48.5928 79.369 47.6641 79.6541C23.1191 87.2205 9.62598 92.6034 9.49268 92.6561C9.37078 92.7049 9.24047 92.7293 9.10915 92.7278C8.97784 92.7263 8.8481 92.6989 8.72736 92.6473C8.60662 92.5956 8.49722 92.5208 8.40543 92.4268C8.31364 92.3329 8.24125 92.2218 8.19239 92.0999C8.14353 91.978 8.11917 91.8477 8.12067 91.7164C8.12218 91.5851 8.14953 91.4554 8.20118 91.3346C8.25282 91.2139 8.32773 91.1045 8.42165 91.0127C8.51557 90.9209 8.62664 90.8485 8.74854 90.7996C8.88282 90.7469 22.4419 85.3368 47.0762 77.742C48.0083 77.4559 48.9551 77.1698 49.9258 76.8758L50.6797 76.6414C50.7056 76.6317 50.7314 76.6239 50.7578 76.616C51.063 76.5291 51.3677 76.4364 51.6772 76.3426L52.2144 76.1795C52.4819 76.0985 52.7456 76.0184 53.0156 75.9442C55.4941 75.1903 58.1084 74.4198 60.8135 73.6375C65.8008 72.1824 70.9609 70.7264 76.1475 69.3094C76.1636 69.3035 76.1802 69.2996 76.1963 69.2948C80.8008 68.0321 85.459 66.7908 90.0415 65.6092C94.1358 64.5457 97.9565 63.577 101.721 62.6473C104.213 62.0272 106.749 61.4096 109.331 60.7947C115.316 59.3436 121.563 57.8924 127.894 56.4822C133.193 55.2986 138.449 54.16 143.516 53.0994C163.359 48.9373 183.713 45.1766 204.013 41.9207C353.162 17.9891 586.533 7.03687 851.312 90.7751C851.54 90.847 851.734 90.998 851.86 91.2008C851.986 91.4035 852.036 91.6447 851.999 91.8807C851.963 92.1167 851.843 92.3319 851.662 92.4873C851.481 92.6428 851.25 92.7283 851.011 92.7283Z" fill="#CCCCCC"/>
<path d="M232.929 317.71C232.839 320.85 232.749 323.99 232.659 327.13C232.469 334.1 232.272 341.073 232.069 348.05C231.859 355.9 231.639 363.747 231.409 371.59C231.299 375.64 231.185 379.69 231.069 383.74C230.759 394.65 230.452 405.557 230.149 416.46C230.119 417.59 230.079 418.71 230.049 419.84C229.899 425.25 229.749 430.66 229.599 436.07C229.429 441.94 229.262 447.81 229.099 453.68C228.979 458.08 228.855 462.483 228.729 466.89C227.829 498.82 226.929 530.75 226.029 562.68C225.991 564.657 225.188 566.543 223.79 567.941C222.392 569.34 220.506 570.142 218.529 570.18C216.545 570.164 214.646 569.369 213.243 567.966C211.84 566.563 211.045 564.664 211.029 562.68C211.529 544.72 212.035 526.76 212.549 508.8C212.999 492.56 213.455 476.32 213.919 460.08C214.069 454.73 214.219 449.377 214.369 444.02C214.599 435.96 214.825 427.9 215.049 419.84C215.079 418.71 215.119 417.59 215.149 416.46C215.169 415.47 215.199 414.49 215.229 413.5C215.669 397.85 216.109 382.197 216.549 366.54C216.729 360.38 216.902 354.217 217.069 348.05C217.269 341.02 217.469 333.993 217.669 326.97C217.759 323.88 217.839 320.8 217.929 317.71C217.967 315.733 218.769 313.847 220.168 312.449C221.566 311.05 223.452 310.248 225.429 310.21C227.413 310.226 229.311 311.021 230.714 312.424C232.117 313.827 232.913 315.726 232.929 317.71Z" fill="#3F3D56"/>
<path d="M644.357 319.791C636.492 349.571 627.093 378.924 616.196 407.732C613.189 415.679 610.113 423.609 606.824 431.444L607.58 429.653C606.113 433.385 604.238 436.943 601.991 440.265C601.838 440.479 601.682 440.691 601.524 440.901C602.301 439.907 602.449 439.711 601.967 440.312C601.713 440.613 601.462 440.914 601.199 441.207C600.499 441.991 599.748 442.727 598.95 443.411C598.749 443.582 598.545 443.751 598.338 443.915L599.276 443.186C599.167 443.443 598.404 443.783 598.166 443.929C597.395 444.394 596.591 444.801 595.761 445.147L597.552 444.391C596.191 444.94 594.772 445.329 593.321 445.552L595.315 445.284C593.89 445.481 592.446 445.496 591.017 445.33L593.011 445.598C591.842 445.437 590.698 445.129 589.606 444.681L591.398 445.437C590.815 445.183 590.254 444.884 589.719 444.541C589.447 444.364 588.614 443.732 589.704 444.565C590.837 445.431 589.85 444.64 589.616 444.41C589.422 444.218 589.247 444.01 589.057 443.815C588.174 442.91 590.053 445.371 589.453 444.313C589.133 443.783 588.84 443.237 588.575 442.676L589.331 444.468C588.987 443.615 588.743 442.726 588.603 441.817L588.871 443.81C588.728 442.68 588.727 441.536 588.868 440.406L588.6 442.399C588.784 441.137 589.117 439.902 589.595 438.719L588.839 440.511C589.172 439.715 589.566 438.947 590.017 438.212C590.225 437.833 590.469 437.474 590.745 437.141C590.794 437.157 589.477 438.654 590.176 437.898C590.359 437.7 590.53 437.492 590.715 437.296C591.011 436.982 591.328 436.695 591.641 436.398C592.685 435.404 590.179 437.364 591.384 436.577C592.258 436.003 593.177 435.501 594.133 435.078L592.342 435.834C593.943 435.176 595.622 434.726 597.337 434.494L595.343 434.762C597.491 434.515 599.662 434.541 601.804 434.838L599.81 434.571C602.522 434.982 605.173 435.727 607.702 436.791L605.91 436.034C611.3 438.348 616.073 441.784 620.838 445.152C625.44 448.485 630.29 451.463 635.344 454.059C646.217 459.465 657.921 463.005 669.967 464.533C687.242 466.649 704.772 464.393 720.949 457.971C737.126 451.55 751.431 441.169 762.552 427.781C763.909 426.342 764.691 424.454 764.749 422.477C764.735 420.491 763.947 418.589 762.552 417.174C759.801 414.648 754.603 413.935 751.945 417.174C749.427 420.249 746.72 423.163 743.839 425.901C742.494 427.177 741.113 428.414 739.697 429.611C738.887 430.295 738.067 430.965 737.236 431.622C736.842 431.933 735.617 432.76 737.499 431.425C737.067 431.731 736.654 432.065 736.228 432.379C729.93 437.022 723.106 440.904 715.896 443.944L717.688 443.188C709.951 446.433 701.826 448.66 693.516 449.811L695.51 449.543C686.962 450.667 678.302 450.654 669.757 449.505L671.75 449.773C663.207 448.599 654.852 446.324 646.893 443.002L648.685 443.758C641.005 440.36 633.717 436.139 626.949 431.167C623.426 428.559 619.711 426.221 615.836 424.173C611.321 421.867 606.432 420.381 601.398 419.785C591.959 418.674 582.341 422.35 577.152 430.505C572.376 438.01 572.438 448.749 579.125 455.13C586.013 461.703 596.444 461.647 604.561 457.536C612.378 453.576 617.074 445.35 620.376 437.594C627.807 420.139 634.386 402.28 640.516 384.331C646.58 366.573 652.08 348.635 657.014 330.518C657.625 328.274 658.228 326.028 658.821 323.779C659.822 319.99 657.56 315.459 653.583 314.553C651.666 314.06 649.632 314.33 647.911 315.307C646.19 316.285 644.916 317.892 644.357 319.791Z" fill="#3F3D56"/>
<path d="M719.19 317.709L716.49 413.503L713.805 508.797L712.286 562.68C712.303 564.664 713.099 566.562 714.502 567.965C715.904 569.368 717.802 570.164 719.786 570.18C721.763 570.142 723.649 569.34 725.047 567.941C726.446 566.543 727.248 564.658 727.286 562.68L729.986 466.887L732.671 371.593L734.19 317.709C734.173 315.726 733.377 313.828 731.974 312.425C730.571 311.022 728.674 310.226 726.69 310.209C724.713 310.248 722.827 311.05 721.429 312.448C720.03 313.847 719.228 315.732 719.19 317.709Z" fill="#3F3D56"/>
<path d="M445.369 504.14C442.437 517.219 435.414 529.023 425.319 537.84C424.579 538.48 423.839 539.1 423.069 539.71C421.199 539.88 419.342 540.053 417.499 540.23C415.969 540.37 414.459 540.52 412.959 540.66L412.689 540.69L412.499 539.05L411.739 532.41C408.791 527.597 406.963 522.182 406.392 516.566C405.821 510.951 406.52 505.278 408.439 499.97C411.079 492.85 415.859 486.56 420.559 480.32C427.049 471.7 433.359 463.18 433.589 452.67C436.782 456.757 439.437 461.237 441.489 466C439.553 466.911 437.814 468.192 436.369 469.77C435.959 470.22 435.549 470.85 435.829 471.39C436.069 471.85 436.669 471.96 437.189 472.02C438.439 472.15 439.699 472.28 440.949 472.41C441.949 472.52 442.949 472.62 443.949 472.73C445.159 476.701 445.979 480.78 446.399 484.91C447.073 491.334 446.725 497.825 445.369 504.14Z" fill="#3F3D56"/>
<path d="M478.569 477.93C472.669 482.22 469.219 488.39 466.539 495.19C463.792 496.069 461.321 497.647 459.369 499.77C458.959 500.22 458.549 500.85 458.829 501.39C459.069 501.85 459.669 501.96 460.189 502.02C461.439 502.15 462.699 502.28 463.949 502.41C461.269 510.45 458.809 518.77 454.069 525.56C450.916 530.043 446.807 533.769 442.039 536.47C440.738 537.211 439.396 537.875 438.019 538.46C432.939 538.85 427.955 539.267 423.069 539.71C421.199 539.88 419.342 540.053 417.499 540.23C415.969 540.37 414.459 540.52 412.959 540.66C412.949 540.11 412.949 539.56 412.959 539.01C413.275 524.359 418.665 510.271 428.209 499.15C428.659 498.63 429.119 498.12 429.589 497.61C434.424 492.446 440.11 488.15 446.399 484.91C456.308 479.758 467.415 477.348 478.569 477.93Z" fill="#690979"/>
<path d="M419.229 535.1L418.079 538.5L417.499 540.23C415.969 540.37 414.459 540.52 412.959 540.66L412.689 540.69C411.029 540.86 409.379 541.03 407.729 541.2C407.299 540.7 406.869 540.19 406.449 539.67C396.011 527.03 391.001 510.773 392.513 494.45C394.025 478.128 401.937 463.067 414.519 452.56C413.199 459.47 414.739 466.09 417.269 472.66C416.999 472.77 416.739 472.88 416.489 473C414.553 473.911 412.814 475.192 411.369 476.77C410.959 477.22 410.549 477.85 410.829 478.39C411.069 478.85 411.669 478.96 412.189 479.02C413.439 479.15 414.699 479.28 415.949 479.41C416.949 479.52 417.949 479.62 418.949 479.73C419.419 479.78 419.889 479.83 420.359 479.88C420.429 480.03 420.489 480.17 420.559 480.32C423.409 486.5 426.479 492.71 428.209 499.15C428.643 500.766 428.983 502.405 429.229 504.06C429.999 509.653 429.5 515.347 427.769 520.72C426.037 526.094 423.119 531.009 419.229 535.1Z" fill="#57007B"/>
<path d="M544.589 356.285C533.943 336.639 517.451 320.11 498.053 307.963C478.594 295.833 456.264 288.445 433.055 286.46C430.013 286.198 426.963 286.045 423.906 286C420.293 285.949 365.952 300.778 347.748 312.887C329.554 324.849 314.587 340.69 304.055 359.131C293.542 377.673 288.371 398.507 289.061 419.538C289.962 440.696 296.196 461.344 307.242 479.761C318.138 498.118 333.608 513.679 352.309 525.091C371.275 536.54 390.328 566.899 412.721 567.97C435.284 569.05 461.015 540.413 481.593 531.718C502.172 522.95 519.962 509.234 533.191 491.934C546.046 474.982 554.362 455.331 557.427 434.669C560.609 413.513 559.126 391.695 551.489 371.474C549.53 366.279 547.225 361.205 544.589 356.285C542.388 352.184 535.938 350.674 531.9 353.137C529.819 354.349 528.313 356.273 527.693 358.509C527.074 360.745 527.388 363.12 528.573 365.142C529.865 367.55 531.067 369.999 532.178 372.486L531.243 370.39C535.447 379.955 538.306 390 539.746 400.268L539.415 397.935C540.947 409.076 540.919 420.358 539.333 431.492L539.664 429.159C538.061 440.292 534.92 451.177 530.322 461.536L531.257 459.44C528.892 464.725 526.135 469.846 523.007 474.764C521.422 477.249 519.74 479.675 517.961 482.043C517.18 483.082 516.375 484.103 515.564 485.121C514.505 486.45 517.007 483.386 515.913 484.689C515.726 484.911 515.541 485.134 515.354 485.355C514.792 486.019 514.223 486.677 513.645 487.329C509.79 491.681 505.582 495.743 501.061 499.477C499.935 500.407 498.79 501.316 497.626 502.205C497.046 502.647 496.474 503.109 495.869 503.52C495.892 503.505 497.822 502.117 496.68 502.923C496.32 503.176 495.964 503.433 495.604 503.685C493.205 505.367 490.743 506.962 488.217 508.473C482.4 511.939 476.298 514.957 469.97 517.496L472.185 516.612C461.269 520.96 449.795 523.93 438.06 525.446L440.525 525.133C428.796 526.633 416.908 526.653 405.172 525.192L407.638 525.506C396.972 524.151 386.54 521.482 376.605 517.568L378.821 518.453C373.067 516.154 367.519 513.419 362.231 510.274C359.614 508.714 357.065 507.058 354.584 505.305C354.23 505.055 353.879 504.801 353.527 504.55C352.395 503.741 354.34 505.146 354.356 505.156C353.697 504.709 353.064 504.231 352.457 503.723C351.259 502.8 350.08 501.855 348.919 500.889C344.275 497.02 339.938 492.832 335.943 488.36C334.943 487.242 333.965 486.107 333.008 484.955C332.593 484.456 331.837 483.446 333.508 485.574C333.288 485.294 333.06 485.019 332.838 484.741C332.305 484.072 331.779 483.398 331.26 482.719C329.444 480.342 327.718 477.906 326.082 475.412C322.384 469.766 319.157 463.856 316.43 457.736L317.365 459.832C312.902 449.787 309.85 439.231 308.287 428.435L308.619 430.768C307.209 420.816 307.189 410.732 308.559 400.776L308.228 403.108C309.632 393.466 312.374 384.042 316.382 375.078L315.447 377.174C317.969 371.562 320.944 366.143 324.345 360.963C326.048 358.371 327.852 355.842 329.758 353.377C330.191 352.816 330.629 352.259 331.072 351.706C331.473 351.205 332.575 349.959 330.694 352.161C330.879 351.945 331.056 351.723 331.238 351.505C332.284 350.251 333.355 349.017 334.452 347.802C338.605 343.203 343.102 338.894 347.911 334.909C349.126 333.901 350.36 332.915 351.614 331.95C352.183 331.511 352.757 331.077 353.334 330.648C353.565 330.476 353.799 330.308 354.028 330.135C351.558 331.994 353.342 330.641 353.903 330.243C356.486 328.412 359.139 326.672 361.861 325.024C367.911 321.363 374.275 318.19 380.887 315.538L378.672 316.423C388.268 312.611 430.783 303.613 438.515 304.595L436.05 304.282C447.415 305.783 458.523 308.687 469.091 312.919L466.876 312.034C472.231 314.185 477.435 316.659 482.457 319.439C484.966 320.83 487.426 322.298 489.836 323.841C490.977 324.571 492.105 325.318 493.222 326.081C493.78 326.463 494.335 326.848 494.887 327.238C495.193 327.454 495.498 327.674 495.804 327.891C497.089 328.802 494.033 326.571 495.381 327.579C499.889 330.93 504.171 334.546 508.201 338.404C510.181 340.311 512.092 342.279 513.935 344.307C514.88 345.348 515.806 346.403 516.713 347.475C517.164 348.007 518.698 349.933 516.818 347.573C517.277 348.15 517.742 348.723 518.196 349.304C522.103 354.308 525.574 359.605 528.573 365.142C530.79 369.234 537.212 370.76 541.262 368.29C543.343 367.079 544.85 365.155 545.47 362.919C546.089 360.683 545.774 358.306 544.589 356.285Z" fill="#3F3D56"/>
<path d="M95.249 450C101.324 450 106.249 445.075 106.249 439C106.249 432.925 101.324 428 95.249 428C89.1739 428 84.249 432.925 84.249 439C84.249 445.075 89.1739 450 95.249 450Z" fill="#3F3D56"/>
<path d="M227.249 570C233.324 570 238.249 565.075 238.249 559C238.249 552.925 233.324 548 227.249 548C221.174 548 216.249 552.925 216.249 559C216.249 565.075 221.174 570 227.249 570Z" fill="#3F3D56"/>
<path d="M728.249 570C734.324 570 739.249 565.075 739.249 559C739.249 552.925 734.324 548 728.249 548C722.174 548 717.249 552.925 717.249 559C717.249 565.075 722.174 570 728.249 570Z" fill="#3F3D56"/>
<path d="M755.249 430C761.324 430 766.249 425.075 766.249 419C766.249 412.925 761.324 408 755.249 408C749.174 408 744.249 412.925 744.249 419C744.249 425.075 749.174 430 755.249 430Z" fill="#3F3D56"/>
<path d="M723.249 328C729.324 328 734.249 323.075 734.249 317C734.249 310.925 729.324 306 723.249 306C717.174 306 712.249 310.925 712.249 317C712.249 323.075 717.174 328 723.249 328Z" fill="#3F3D56"/>
<path d="M264.249 419C264.242 421.81 263.155 424.51 261.214 426.541C259.272 428.571 256.624 429.778 253.817 429.911C251.01 430.044 248.26 429.093 246.135 427.254C244.011 425.415 242.674 422.83 242.402 420.034C242.13 417.237 242.944 414.443 244.675 412.23C246.406 410.016 248.921 408.553 251.701 408.143C254.48 407.732 257.311 408.406 259.608 410.025C261.905 411.644 263.491 414.084 264.039 416.84C264.18 417.551 264.25 418.275 264.249 419Z" fill="#3F3D56"/>
<path d="M484.249 360C490.324 360 495.249 355.075 495.249 349C495.249 342.925 490.324 338 484.249 338C478.174 338 473.249 342.925 473.249 349C473.249 355.075 478.174 360 484.249 360Z" fill="#3F3D56"/>
<path d="M375.249 349C375.242 351.81 374.155 354.509 372.214 356.54C370.272 358.571 367.624 359.778 364.817 359.911C362.01 360.044 359.26 359.092 357.135 357.254C355.011 355.415 353.674 352.83 353.402 350.034C353.13 347.237 353.944 344.443 355.675 342.23C357.406 340.016 359.921 338.553 362.701 338.143C365.48 337.732 368.312 338.406 370.608 340.025C372.905 341.644 374.491 344.084 375.039 346.84C375.18 347.551 375.25 348.275 375.249 349Z" fill="#3F3D56"/>
<path d="M233.249 317C233.242 319.81 232.155 322.509 230.214 324.54C228.272 326.571 225.624 327.778 222.817 327.911C220.01 328.044 217.26 327.092 215.135 325.254C213.011 323.415 211.674 320.83 211.402 318.034C211.13 315.237 211.944 312.443 213.675 310.23C215.406 308.016 217.921 306.553 220.701 306.143C223.48 305.732 226.311 306.406 228.608 308.025C230.905 309.644 232.491 312.084 233.039 314.84C233.18 315.551 233.25 316.275 233.249 317Z" fill="#3F3D56"/>
<path d="M599.249 454C605.324 454 610.249 449.075 610.249 443C610.249 436.925 605.324 432 599.249 432C593.174 432 588.249 436.925 588.249 443C588.249 449.075 593.174 454 599.249 454Z" fill="#3F3D56"/>
<path d="M426.249 354C435.086 354 442.249 346.837 442.249 338C442.249 329.163 435.086 322 426.249 322C417.412 322 410.249 329.163 410.249 338C410.249 346.837 417.412 354 426.249 354Z" fill="#3F3D56"/>
<path d="M858.941 570.841L1.19067 571.148C1.03431 571.148 0.879476 571.117 0.735016 571.057C0.590556 570.997 0.459305 570.91 0.34874 570.799C0.238175 570.689 0.150459 570.557 0.0906219 570.413C0.0307847 570.268 0 570.114 0 569.957C0 569.801 0.0307847 569.646 0.0906219 569.502C0.150459 569.357 0.238175 569.226 0.34874 569.115C0.459305 569.005 0.590556 568.917 0.735016 568.857C0.879476 568.797 1.03431 568.767 1.19067 568.767L858.941 568.459C859.256 568.46 859.558 568.586 859.78 568.809C860.003 569.032 860.128 569.335 860.128 569.65C860.128 569.965 860.003 570.267 859.78 570.491C859.558 570.714 859.256 570.84 858.941 570.841Z" fill="#CACACA"/>
<rect x="350" y="366" width="172" height="84" rx="8" fill="black"/>
<rect x="356" y="371" width="161" height="72" fill="#61187F"/>
<path d="M407 443L423.5 435L421.5 418.5L433 408" stroke="black"/>
<path d="M355.5 371L365.5 385.5L386.5 375L395 386.5L413 386.5L407.5 400L429.238 399.56" stroke="black"/>
<path d="M442.915 400.507L460.5 404.5L468 392L499 390L516.5 375.5" stroke="black"/>
<path d="M439 397L440.796 400.8L443.702 398.5L443.5 402L449 406L441.906 403.149L449 414.5L439 405.5L437.5 408L437 406L428.5 412.5L436.094 403.149L427.5 400L431.5 397L437.204 400.8L439 397Z" fill="black"/>
<g clip-path="url(#clip1_213_216)">
<path d="M101.307 555.641L94.418 556.984C94.418 556.984 92.796 561.376 92.0393 563.74C91.9885 563.867 91.8365 564.289 91.7349 564.542C91.6353 564.964 91.5875 565.343 91.5924 565.764C91.7742 567.864 92.7893 569.66 95.1015 570.558C97.6768 571.579 99.6757 572.522 102.372 570.472C105.067 568.422 105.523 567.155 104.331 563.679C103.139 560.203 101.307 555.641 101.307 555.641Z" fill="#4B49BB"/>
<path d="M141.509 562.44C136.84 561.318 134.798 556.717 134.798 556.717L125.431 556.449C125.431 556.449 125.278 561.16 125.047 563.728C124.773 567.137 125.576 568.642 128.397 568.398C132.16 568.101 147.55 569.013 149.942 567.765C153.114 566.172 145.863 563.482 141.509 562.44Z" fill="#4B49BB"/>
<path d="M85.6159 449.611C85.6159 449.611 82.1573 453.52 81.1823 463.96C80.2072 474.399 82.8995 494.173 84.0954 497.985C85.2913 501.797 90.3164 537.48 91.4984 540.115C92.6803 542.75 94.4174 556.942 94.4174 556.942L101.846 557.022C101.846 557.022 103.823 538.413 103.765 533.494C103.707 528.575 106.19 481.998 105.941 478.594C105.691 475.191 106.698 476.273 106.698 476.273C106.698 476.273 113.433 492.887 115.401 495.639C117.369 498.391 120.885 503.773 120.885 503.773C120.885 503.773 121.876 521.212 122.937 531.291C123.998 541.371 125.179 557.251 125.179 557.251L135.167 556.965C135.167 556.965 137.154 530.366 137.088 524.775C137.022 519.183 138.955 505.746 138.937 504.191C138.919 502.635 132.059 475.51 132.059 475.51L127.196 449.077L85.6159 449.611Z" fill="url(#paint2_linear_213_216)"/>
<path d="M88.8318 376.534C88.8318 376.534 93.0124 362.902 96.4001 361.853C109.742 357.701 111.023 350.958 116.951 370.146C122.88 389.334 138.939 411.473 145.764 417.994C155.129 426.923 154.413 432.777 151.124 433.362C147.836 433.948 131.037 437.72 129.733 438.072C128.43 438.424 132.568 447.752 126.904 446.516C123.757 445.838 123.364 434.7 127.281 434.149C128.899 433.919 147.536 430.713 147.421 429.832C147.306 428.95 132.68 413.018 132.68 413.018L123.329 409.597L100.145 399.905L89.0575 395.621L87.7324 380.878L86.9141 378.028L88.779 376.492" fill="url(#paint3_linear_213_216)"/>
<path d="M86.0659 394.773C86.0659 394.773 86.1829 395.823 83.0875 399.476C81.2305 401.685 85.9716 400.073 82.0094 405.628C75.7314 414.406 72.2852 423.782 71.8831 429.589C71.6638 433.166 75.5258 432.406 77.1606 433.522C78.0572 434.142 80.9737 433.056 81.6441 432.249L82.9298 430.384C83.291 429.959 86.7978 425.713 86.8965 425.207C87.1909 423.564 89.0964 416.603 89.747 414.114C90.2974 412.006 94.8434 407.158 98.44 397.234C99.5026 394.194 98.3893 392.946 98.6345 391.555C99.3658 387.047 91.5214 387.224 90.8599 388.788C90.7075 389.168 84.9687 408.158 84.6847 410.684C84.59 411.526 86.7706 418.985 88.4163 421.026C90.0621 423.067 91.91 424.517 91.9314 426.325C91.9528 428.133 90.9942 435.545 89.3593 438.844C87.7244 442.143 85.408 449.739 85.408 449.739L127.196 449.077C127.196 449.077 125.508 434.674 126.077 429.664C126.077 429.664 127.663 413.372 128.69 411.762C129.717 410.152 141.083 424.651 143.951 428.359C145.12 429.901 129.253 432.822 127.96 434.057C126.666 435.291 129.374 438.665 129.374 438.665C129.374 438.665 157.114 435.604 156.917 432.2C156.72 428.797 140.719 402.747 135.064 397.852C129.409 392.957 127.947 393.143 123.255 394.544C118.564 395.945 116.329 397.191 110.011 398.107C105.416 398.792 100.648 398.175 96.5462 396.331C94.2838 395.223 86.0659 394.773 86.0659 394.773Z" fill="url(#paint4_linear_213_216)"/>
<path d="M80.5183 407.79C80.9825 407.238 81.4468 406.686 81.8059 406.093C82.1656 405.542 82.4231 405.203 82.577 404.949C84.584 402.15 89.1639 395.746 89.8633 392.963C90.2688 391.864 90.5692 390.726 90.765 389.588C90.9129 388.829 90.9558 388.03 90.8422 387.274C90.5638 385.848 86.8844 379.92 87.401 379.368C87.4523 379.283 87.9031 377.596 88.5895 378.134C89.3815 378.756 94.534 380.965 94.905 381.381C95.9157 382.799 96.7181 384.303 97.3118 385.852C97.6889 386.773 98.0345 389.46 98.1416 389.669C99.2663 391.884 98.0309 393.581 98.1494 394.757C98.2067 395.177 98.2266 396.858 98.4901 397.023C99.2273 397.435 100.226 397.802 100.639 397.376C101.052 396.951 100.882 395.776 100.92 394.598C101.109 388.499 99.6311 382.923 97.8181 380.001C96.005 377.079 91.805 371.368 94.5901 368.014C97.3751 364.659 103.254 361.982 103.506 361.138C103.758 360.294 103.962 364.329 107.117 365.721C110.272 367.113 114.711 370.887 114.72 371.686C114.73 372.485 115.809 375.247 112.884 380.034C109.959 384.82 107.677 390.944 111.862 395.394C116.047 399.843 126.53 406.069 127.28 407.49C128.029 408.91 127.371 415.268 127.152 418.844C126.933 422.421 135.501 412.649 135.132 407.985C134.763 403.322 135.785 401.292 129.791 394.257C123.797 387.221 119.781 374.99 119.589 372.007C119.397 369.024 117.574 360.846 113.989 358.491C110.404 356.137 110.064 353.912 100.188 354.828C100.188 354.828 91.8751 355.179 89.5986 361.723C87.322 368.268 87.0643 377.437 86.9766 378.868C86.8899 380.383 87.8361 389.623 86.8243 392.536C85.8126 395.449 81.0215 401.687 80.1099 404.221" fill="url(#paint5_linear_213_216)"/>
<path opacity="0.07" d="M98.1312 556.94C98.185 557.066 98.1865 557.192 98.188 557.318C98.2512 558.242 98.2263 560.555 96.9884 562.042C95.4422 563.994 99.2059 568.197 99.2183 569.248C99.2307 570.299 97.5162 571.286 96.3098 571.006C95.1033 570.726 90.0555 568.515 91.9853 563.614C92.7465 561.629 93.1968 559.9 93.6546 558.801C93.9096 558.252 94.1124 557.702 94.3151 557.153C94.3645 556.901 94.3615 556.648 94.3585 556.396C94.3022 556.06 94.2977 555.682 94.241 555.304C93.9571 553.415 83.3222 494.546 82.9293 492.28C82.5916 490.266 80.9795 477.796 81.0499 470.479C80.9379 469.85 80.9304 469.219 80.9758 468.63C80.9738 468.462 81.0699 467.746 81.0141 467.452C81.0585 466.779 81.1028 466.105 81.1995 465.431C81.0361 464.887 81.1407 464.885 81.1826 464.002C81.2245 463.118 81.1662 462.614 81.2643 462.067C82.1994 457.094 84.3818 451.433 85.4613 449.823L85.7647 448.936C85.7647 448.936 87.5167 442.272 88.3371 440.874C89.0545 439.604 92.0973 427.08 91.8194 425.696C91.5414 424.311 88.1523 420.819 88.1523 420.819L88.6007 418.922C88.6007 418.922 89.6139 416.134 90.6321 413.768C91.4476 411.95 94.0584 407.125 95.1324 405.052C96.8709 401.668 97.6923 400.355 98.0321 398.122C98.2737 396.437 98.4914 397.149 99.4368 397.475C100.802 397.879 100.847 397.332 100.887 396.28C100.901 393 100.706 389.765 100.301 386.49C99.852 383.93 96.5083 379.849 95.0663 377.343C94.214 376.049 93.57 374.669 93.0301 373.246C92.3766 371.067 92.4001 368.628 94.9385 366.538C97.1662 364.703 103.817 360.882 103.817 360.882C103.817 360.882 100.79 365.964 102.066 367.673C104.137 370.297 103.183 373.673 103.197 374.85C103.211 376.027 101.624 378.989 102.654 381.963C104.442 387.198 101.496 390.218 102.636 393.779C103.342 395.957 103.769 396.667 103.112 398.609C102.455 400.551 95.8813 415.303 99.6956 423.794C103.51 432.285 105.308 438.319 99.4057 443.519C93.5039 448.719 99.0498 453.236 99.1972 456.851C99.5641 465.761 94.1655 464.858 93.9173 470.411C93.6691 475.964 95.2331 479.941 95.372 482.84C95.7463 492.381 95.6118 494.275 95.0284 498.024C94.445 501.773 91.3386 508.916 95.0602 522.833C98.7818 536.749 98.2737 538.016 98.001 545.925C97.7283 553.833 98.1312 556.94 98.1312 556.94Z" fill="black"/>
<path d="M85.9741 373.75C87.3769 372.934 88.8852 372.202 90.4468 371.553C92.3745 370.899 93.291 373.201 93.8265 374.246C94.3619 375.291 97.0536 381.734 97.1641 382.238C97.2189 382.447 96.8 382.41 95.4501 383.267C95.2424 383.396 94.8753 383.316 94.4479 382.564C94.2337 382.146 93.5419 381.145 92.7533 380.818C92.438 380.696 87.5052 379.366 87.4574 379.745C87.4096 380.124 88.6408 382.507 89.2849 383.887C89.3387 384.012 90.1919 385.39 90.038 385.644C89.9862 385.687 90.0903 385.643 90.0903 385.643C90.0903 385.643 89.2041 385.906 88.9396 385.657C88.6751 385.408 86.0876 378.921 85.1168 376.451C84.9011 375.907 84.4215 375.156 84.8882 374.814L85.9741 373.75Z" fill="white"/>
</g>
<path d="M262.989 419.84C262.642 418.827 262.059 417.912 261.289 417.17C261.004 416.906 260.696 416.668 260.369 416.46C257.759 414.72 253.859 414.33 251.379 416.46C251.129 416.677 250.898 416.914 250.689 417.17C249.949 418.08 249.189 418.97 248.409 419.84C247.129 421.3 245.819 422.71 244.449 424.08C244.059 424.46 243.669 424.85 243.269 425.23C243.039 425.46 242.809 425.68 242.579 425.9C241.699 426.74 240.799 427.55 239.889 428.35C239.409 428.78 238.929 429.2 238.439 429.61C237.709 430.22 236.979 430.83 236.239 431.42C236.169 431.47 236.099 431.52 236.029 431.58C236.009 431.59 235.999 431.61 235.979 431.62C235.969 431.62 235.959 431.62 235.949 431.64C235.922 431.651 235.897 431.668 235.879 431.69C235.659 431.84 235.509 431.94 235.399 432.03C235.439 432.01 235.479 431.98 235.519 431.96C235.339 432.1 235.149 432.24 234.969 432.38C233.219 433.67 231.429 434.91 229.599 436.07C225.071 438.968 220.315 441.493 215.379 443.62C215.049 443.75 214.709 443.89 214.369 444.02C201.443 449.315 187.422 451.382 173.519 450.04C172.099 449.93 170.679 449.78 169.259 449.59C167.619 449.35 165.989 449.06 164.369 448.73C158.201 447.499 152.167 445.678 146.349 443.29C139.071 439.957 132.149 435.897 125.689 431.17C124.689 430.46 123.679 429.75 122.669 429.06C123.819 426.24 124.949 423.42 126.049 420.58C126.599 419.21 127.129 417.84 127.649 416.46C131.739 405.83 135.579 395.1 139.259 384.33C142.979 373.42 146.489 362.447 149.789 351.41C150.129 350.29 150.459 349.17 150.779 348.05C152.509 342.22 154.169 336.377 155.759 330.52C155.909 329.95 156.069 329.39 156.209 328.82C156.669 327.14 157.119 325.46 157.559 323.78C158.559 319.99 156.299 315.46 152.319 314.55C150.402 314.059 148.37 314.33 146.65 315.308C144.93 316.285 143.657 317.892 143.099 319.79C142.669 321.41 142.239 323.02 141.799 324.64C139.689 332.47 137.469 340.273 135.139 348.05C134.799 349.17 134.459 350.29 134.119 351.41C128.979 368.35 123.335 385.12 117.189 401.72C116.449 403.73 115.699 405.733 114.939 407.73C114.569 408.71 114.199 409.69 113.819 410.67C113.089 412.6 112.339 414.53 111.589 416.46C111.159 417.59 110.719 418.72 110.279 419.84C109.989 420.55 109.709 421.26 109.429 421.96C106.577 420.936 103.623 420.225 100.619 419.84L100.139 419.78C97.809 419.5 95.453 419.52 93.1286 419.84C89.6496 420.246 86.3023 421.411 83.3233 423.253C80.3443 425.095 77.8062 427.569 75.8886 430.5C71.1186 438.01 71.1786 448.75 77.8686 455.13C84.7586 461.7 95.1886 461.65 103.299 457.54C107.596 455.215 111.22 451.818 113.819 447.68C114.814 446.18 115.729 444.628 116.559 443.03C116.769 443.17 116.979 443.31 117.189 443.46C117.989 444.02 118.789 444.59 119.579 445.15C124.182 448.485 129.032 451.463 134.089 454.06C144.961 459.465 156.664 463.004 168.709 464.53C168.979 464.56 169.239 464.6 169.509 464.63C170.839 464.8 172.179 464.93 173.519 465.04C192.741 466.489 211.986 462.555 229.099 453.68C230.549 452.93 231.985 452.143 233.409 451.32C235.619 450.04 237.779 448.68 239.889 447.24C241.039 446.46 242.159 445.67 243.269 444.84C248.119 441.267 252.641 437.268 256.779 432.89C258.349 431.24 259.852 429.537 261.289 427.78C262.647 426.343 263.43 424.457 263.489 422.48C263.481 421.577 263.311 420.683 262.989 419.84ZM97.3986 443.66C97.6086 443.51 97.8186 443.35 98.0186 443.19C97.9586 443.34 97.6686 443.51 97.3986 443.66ZM100.609 440.43C100.379 440.69 100.169 440.95 99.9386 441.21C99.2389 441.993 98.4872 442.728 97.6886 443.41C97.5786 443.51 97.4586 443.61 97.3386 443.7C97.3373 443.7 97.3359 443.7 97.3347 443.701C97.3335 443.701 97.3324 443.702 97.3315 443.703C97.3305 443.704 97.3298 443.705 97.3293 443.706C97.3288 443.707 97.3286 443.709 97.3286 443.71C97.1841 443.775 97.0438 443.848 96.9085 443.93C96.4785 444.19 96.0386 444.43 95.5886 444.65C94.7075 444.974 93.8011 445.225 92.8786 445.4C92.1697 445.452 91.4583 445.458 90.7486 445.42H90.7286C90.2388 445.311 89.7548 445.178 89.2786 445.02C89.0386 444.9 88.8086 444.76 88.5786 444.62C88.4886 444.54 88.4085 444.46 88.3586 444.41C88.2609 444.321 88.1706 444.224 88.0887 444.12C88.0887 444.119 88.0884 444.117 88.0879 444.116C88.0874 444.115 88.0867 444.114 88.0858 444.113C88.0849 444.112 88.0837 444.111 88.0825 444.111C88.0813 444.11 88.08 444.11 88.0786 444.11C87.9686 443.91 87.8486 443.71 87.7386 443.51C87.7329 443.505 87.7294 443.498 87.7286 443.49C87.6486 443.24 87.5786 442.98 87.5186 442.72C87.497 442.263 87.5003 441.806 87.5286 441.35C87.6628 440.711 87.8433 440.083 88.0686 439.47C88.2711 439.036 88.5016 438.615 88.7586 438.21C88.7786 438.17 88.8786 438.01 88.9886 437.83C88.9986 437.82 88.9986 437.82 88.9986 437.81C89.1486 437.64 89.2987 437.46 89.4587 437.3C89.7287 437 90.0187 436.74 90.3087 436.47C90.8726 436.101 91.4569 435.764 92.0587 435.46C93.0133 435.121 93.9929 434.857 94.9886 434.67C96.457 434.553 97.9327 434.567 99.3987 434.71C100.787 434.951 102.157 435.288 103.499 435.72C102.686 437.298 101.76 438.815 100.729 440.26C100.689 440.32 100.649 440.38 100.609 440.43ZM89.4886 437.14C89.4005 437.281 89.2965 437.412 89.1786 437.53C89.2579 437.383 89.3629 437.251 89.4886 437.14Z" fill="#3F3D56"/>
</g>
<g clip-path="url(#clip2_213_216)">
<path d="M336.087 456.687L391.239 471.782C393.355 472.36 394.83 476.214 394.542 480.453L386.397 599.928C386.108 604.167 384.185 607.122 382.068 606.544L326.916 591.449C324.8 590.871 323.325 587.017 323.614 582.777L331.758 463.303C332.047 459.128 333.971 456.109 336.087 456.687Z" fill="#57007B"/>
<path d="M302.253 704.167C300.015 704.606 292.204 702.192 290.888 700.963C290.449 700.568 290.098 699.427 289.747 698.945C289.44 697.409 288.694 698.199 287.948 698.067C285.71 697.584 279.654 696.005 276.802 697.541C276.275 698.725 276.231 699.866 275.88 700.525C275.134 703.508 274.652 706.58 274.345 709.652C274.125 711.539 275.485 713.206 277.328 713.426C277.328 713.426 277.328 713.426 277.372 713.426H277.416C278.031 713.47 278.689 713.426 279.347 713.338C284.174 712.153 293.96 711.846 297.733 710.354C304.052 708.686 307.651 705.351 302.253 704.167Z" fill="#494DB4"/>
<path d="M377.335 707.721C375.141 708.292 367.154 706.361 365.794 705.22C365.311 704.869 364.916 703.772 364.522 703.289C364.127 701.797 363.424 702.587 362.678 702.499C360.397 702.148 354.253 700.919 351.489 702.631C351.006 703.816 351.094 705 350.787 705.659C350.26 708.687 349.909 711.802 349.821 714.874C349.733 716.761 351.182 718.34 353.068 718.472C353.068 718.472 353.068 718.472 353.112 718.472H353.156C353.771 718.516 354.429 718.428 355.043 718.297C359.782 716.805 369.524 715.927 373.21 714.172C379.397 712.109 382.82 708.555 377.335 707.721Z" fill="#494DB4"/>
<path d="M276.539 697.628C280.356 698.155 289.528 698.287 289.528 698.287C289.528 698.287 290.098 693.811 292.906 685.21C295.759 676.477 310.108 649.095 310.108 649.095C313.048 644.619 316.12 635.36 316.12 635.36L320.42 599.904C320.42 599.904 343.107 635.316 342.8 643.347C342.493 651.377 348.11 682.796 348.11 682.796C348.68 687.492 351.488 703.026 351.488 703.026C355.701 702.499 359.958 702.411 364.214 702.675C363.644 696.224 361.318 669.764 361.318 669.764C361.318 669.764 359.87 649.227 359.563 636.721C359.255 624.214 350.347 597.842 344.336 585.774C343.546 583.712 342.888 581.649 342.361 579.499L289.308 586.213C290.493 589.592 291.458 593.015 292.16 596.525C295.276 612.191 297.47 638.52 297.47 638.52C289.176 647.91 283.955 665.595 283.955 665.595C280.576 676.214 276.539 697.628 276.539 697.628Z" fill="url(#paint6_linear_213_216)"/>
<path d="M330.498 474.347C322.501 476.335 315.858 481.998 315.858 481.998L314.728 482.909L310.699 495.375L317.283 490.454C318.986 488.999 322.435 486.407 324.246 485.75C325.538 485.105 328.912 484.319 329.934 482.61C330.857 481.661 330.703 480.757 332.127 477.777C333.078 475.466 332.397 475.212 332.946 474.721C333.65 474.037 332.605 473.603 330.498 474.347Z" fill="url(#paint7_linear_213_216)"/>
<path d="M364.345 579.324C364.258 578.885 362.678 579.148 362.415 578.753C360.703 576.34 358.685 573.268 354.384 571.82C353.156 571.425 351.883 571.162 350.611 571.03L347.714 576.076C348.065 576.954 348.548 577.788 349.075 578.534C350.83 580.903 354.516 584.107 361.274 583.229C362.854 583.053 364.565 580.947 364.345 579.324Z" fill="url(#paint8_linear_213_216)"/>
<path d="M304.008 467.118C303.043 467.118 282.682 482.828 282.506 484.583C282.462 485.505 282.419 489.498 281.716 492.131C281.058 494.588 279.083 498.099 279.083 498.099C279.083 498.099 280.839 501.39 285.402 502.048C289.791 502.662 295.671 501.214 295.671 501.214C295.671 501.214 294.31 492.526 295.978 491.56C297.426 490.726 297.865 491.604 302.867 487.391C307.87 483.179 306.246 472.559 306.115 471.857C305.983 471.155 304.974 467.118 304.008 467.118Z" fill="url(#paint9_linear_213_216)"/>
<path d="M327.266 540.62C320.64 534.608 316.427 515.871 314.321 511.175C312.214 506.48 308.835 505.164 307.519 504.637C306.861 504.374 303.219 503.364 300.498 502.575L320.245 490.156C322.921 485.11 317.656 482.082 317.656 482.082L295.188 493.228V500.819L287.904 499.634L279.215 497.923C276.539 497.309 273.818 496.87 271.097 496.65C269.956 496.563 268.815 496.694 267.718 497.089L267.148 497.309C265.788 497.791 264.647 498.757 263.988 500.073C262.584 503.145 261.619 506.436 261.18 509.771C260.346 515.169 264.515 527.412 268.772 536.319C270.615 540.093 277.811 559.489 279.61 564.36C288.387 584.721 289.001 586.301 289.001 586.301C315.944 586.037 342.186 580.026 342.186 580.026C343.414 577.788 338.982 571.293 338.982 571.293L347.144 578.051C350.699 579.192 353.639 571.249 353.639 571.249C353.639 571.249 332.839 545.666 327.266 540.62Z" fill="url(#paint10_linear_213_216)"/>
<path d="M278.689 468.04C279.128 467.25 280.093 465.451 280.664 464.792C281.629 463.783 282.682 462.818 283.779 461.896C284.788 461.282 287.29 460.009 288.255 459.483C291.678 458.43 296.242 459.483 299.577 459.658C302.604 459.439 304.842 463.213 306.027 465.714C307.212 468.215 304.93 467.908 305.15 469.839C305.193 470.19 304.184 470.716 303.306 471.199C302.429 471.682 299.928 475.675 299.05 477.562C298.128 472.954 295.057 481.16 295.627 482.17C294.399 482.959 292.907 486.294 290.712 487.348C289.177 486.689 286.324 484.144 282.507 484.846C282.243 484.144 278.469 481.336 278.075 476.597C277.767 475.192 277.46 470.146 278.689 468.04Z" fill="url(#paint11_linear_213_216)"/>
<path opacity="0.07" d="M290.317 488.752C290.317 488.752 293.74 491.823 295.803 491.736L295.276 494.325L295.408 498.055C295.408 498.055 294.091 495.948 292.424 493.798C291.371 492.306 290.625 490.595 290.317 488.752Z" fill="black"/>
<path opacity="0.07" d="M302.736 526.446C302.736 526.446 307.036 539.391 320.288 552.863C333.541 566.334 336.744 569.143 336.744 569.143C336.744 569.143 339.465 572.566 338.587 574.848C337.709 577.129 331.917 569.494 318.928 563.57C311.512 560.191 308.967 554.355 305.544 546.193C301.244 535.881 300.278 533.687 299.708 530C298.26 520.347 302.736 526.446 302.736 526.446Z" fill="black"/>
<path opacity="0.07" d="M320.376 599.86C320.376 599.86 314.101 613.42 312.302 620.046C310.459 626.891 310.459 636.852 304.93 641.679C298.655 647.165 291.283 665.595 289.571 669.5C287.158 675.073 282.199 705.79 283.647 707.941C285.052 710.047 290.712 706.887 290.712 706.887C290.712 706.887 288.65 699.076 290.405 692.012C292.16 684.947 300.41 666.077 305.588 656.731C310.284 648.349 315.067 638.651 316.12 633.035C317.173 627.418 320.376 599.86 320.376 599.86Z" fill="black"/>
</g>
<defs>
<linearGradient id="paint0_linear_213_216" x1="388.223" y1="128.875" x2="388.223" y2="375.334" gradientUnits="userSpaceOnUse">
<stop stop-color="#57007B"/>
<stop offset="1" stop-color="#F0F0F0" stop-opacity="0"/>
</linearGradient>
<linearGradient id="paint1_linear_213_216" x1="185.123" y1="163.951" x2="185.123" y2="197.117" gradientUnits="userSpaceOnUse">
<stop stop-color="#57007B"/>
<stop offset="1" stop-color="#57007B" stop-opacity="0"/>
</linearGradient>
<linearGradient id="paint2_linear_213_216" x1="59.8534" y1="503.598" x2="148.978" y2="503.273" gradientUnits="userSpaceOnUse">
<stop stop-color="#4B45BD"/>
<stop offset="1" stop-color="#58CAEA"/>
</linearGradient>
<linearGradient id="paint3_linear_213_216" x1="87.2011" y1="402.303" x2="153.016" y2="401.525" gradientUnits="userSpaceOnUse">
<stop stop-color="#F87B58"/>
<stop offset="0.5" stop-color="#F8C548"/>
<stop offset="1" stop-color="#F89C51"/>
</linearGradient>
<linearGradient id="paint4_linear_213_216" x1="71.7449" y1="418.975" x2="156.75" y2="417.97" gradientUnits="userSpaceOnUse">
<stop stop-color="#E5A4ED"/>
<stop offset="1" stop-color="#7A5BF5"/>
</linearGradient>
<linearGradient id="paint5_linear_213_216" x1="79.9127" y1="387.541" x2="134.891" y2="386.891" gradientUnits="userSpaceOnUse">
<stop stop-color="#4B45BD"/>
<stop offset="1" stop-color="#58CAEA"/>
</linearGradient>
<linearGradient id="paint6_linear_213_216" x1="276.539" y1="641.262" x2="364.214" y2="641.262" gradientUnits="userSpaceOnUse">
<stop stop-color="#4B45BD"/>
<stop offset="1" stop-color="#58CAEA"/>
</linearGradient>
<linearGradient id="paint7_linear_213_216" x1="308.35" y1="489.952" x2="334.997" y2="478.407" gradientUnits="userSpaceOnUse">
<stop stop-color="#F87B58"/>
<stop offset="0.41" stop-color="#F89453"/>
<stop offset="0.94" stop-color="#F8C548"/>
</linearGradient>
<linearGradient id="paint8_linear_213_216" x1="347.714" y1="577.204" x2="364.388" y2="577.204" gradientUnits="userSpaceOnUse">
<stop stop-color="#F87B58"/>
<stop offset="0.41" stop-color="#F89453"/>
<stop offset="0.94" stop-color="#F8C548"/>
</linearGradient>
<linearGradient id="paint9_linear_213_216" x1="279.083" y1="484.659" x2="306.508" y2="484.659" gradientUnits="userSpaceOnUse">
<stop stop-color="#F87B58"/>
<stop offset="0.41" stop-color="#F89453"/>
<stop offset="0.94" stop-color="#F8C548"/>
</linearGradient>
<linearGradient id="paint10_linear_213_216" x1="261.073" y1="534.191" x2="353.639" y2="534.191" gradientUnits="userSpaceOnUse">
<stop stop-color="#E5A4ED"/>
<stop offset="1" stop-color="#7A5BF5"/>
</linearGradient>
<linearGradient id="paint11_linear_213_216" x1="275.846" y1="479.399" x2="301.968" y2="467.937" gradientUnits="userSpaceOnUse">
<stop stop-color="#4B45BD"/>
<stop offset="1" stop-color="#58CAEA"/>
</linearGradient>
<clipPath id="clip0_213_216">
<rect width="860.131" height="571.148" fill="white"/>
</clipPath>
<clipPath id="clip1_213_216">
<rect width="85" height="217" fill="white" transform="translate(71 355.005) rotate(-0.677368)"/>
</clipPath>
<clipPath id="clip2_213_216">
<rect width="157.5" height="259.516" fill="white" transform="translate(261 459)"/>
</clipPath>
</defs>
</svg>
