<svg width="100" height="80" viewBox="0 0 100 80" fill="none" xmlns="http://www.w3.org/2000/svg">
<g clip-path="url(#clip0_414_14)">
<path d="M52.0834 5.19481C52.0834 8.06382 49.7515 10.3896 46.875 10.3896C43.9985 10.3896 41.6667 8.06382 41.6667 5.19481C41.6667 2.32579 43.9985 0 46.875 0C49.7515 0 52.0834 2.32579 52.0834 5.19481Z" fill="#6E2463"/>
<path d="M47.0476 7.98053C46.4169 7.98053 45.8729 7.84132 45.4155 7.56291C44.961 7.28166 44.6101 6.88962 44.363 6.38678C44.1186 5.88109 43.9965 5.29303 43.9965 4.62257C43.9965 3.95212 44.1186 3.36121 44.363 2.84984C44.6101 2.33564 44.9539 1.93507 45.3942 1.64814C45.8374 1.35837 46.3544 1.21348 46.9454 1.21348C47.2863 1.21348 47.6229 1.2703 47.9553 1.38393C48.2877 1.49757 48.5902 1.68223 48.863 1.93791C49.1357 2.19075 49.353 2.52598 49.515 2.94359C49.6769 3.36121 49.7579 3.87541 49.7579 4.48621V4.91234H44.7124V4.04303H48.7351C48.7351 3.67371 48.6613 3.34416 48.5135 3.05439C48.3686 2.76462 48.1613 2.53592 47.8914 2.36831C47.6243 2.2007 47.309 2.11689 46.9454 2.11689C46.5448 2.11689 46.1982 2.21632 45.9056 2.41518C45.6158 2.61121 45.3928 2.86689 45.2365 3.18223C45.0803 3.49757 45.0022 3.83564 45.0022 4.19643V4.77598C45.0022 5.2703 45.0874 5.68933 45.2579 6.03308C45.4311 6.37399 45.6712 6.63393 45.978 6.81291C46.2848 6.98905 46.6414 7.07712 47.0476 7.07712C47.3118 7.07712 47.5505 7.04018 47.7635 6.96632C47.9794 6.88962 48.1655 6.77598 48.3218 6.62541C48.478 6.472 48.5988 6.28166 48.684 6.05439L49.6556 6.32712C49.5533 6.65666 49.3814 6.94643 49.14 7.19643C48.8985 7.44359 48.6002 7.63678 48.2451 7.77598C47.89 7.91234 47.4908 7.98053 47.0476 7.98053Z" fill="white"/>
<path d="M45 9.35064C45.5208 9.35064 47.9167 9.35065 47.9167 9.35065V15H55H73.75C79.9688 15 85 20.0313 85 26.25V68.75C85 74.9687 79.9688 80 73.75 80H26.25C-2.60417 83.1169 15 74.9687 15 68.75V26.25C15 20.0313 20.0312 15 26.25 15H45V9.35064ZM47.5 60C46.125 60 37.9167 61.1862 37.9167 62.5612C37.9167 63.9362 42.1875 68.3241 48.4375 68.8112C60.9375 69.7852 65 63.875 65 62.5C65 61.125 53.875 60 52.5 60C51.125 60 47.5 60 47.5 60ZM41.25 40C41.25 38.3424 40.5915 36.7527 39.4194 35.5806C38.2473 34.4085 36.6576 33.75 35 33.75C33.3424 33.75 31.7527 34.4085 30.5806 35.5806C29.4085 36.7527 28.75 38.3424 28.75 40C28.75 41.6576 29.4085 43.2473 30.5806 44.4194C31.7527 45.5915 33.3424 47.7922 35 47.7922C36.6576 47.7922 38.2473 45.5915 39.4194 44.4194C40.5915 43.2473 41.25 41.6576 41.25 40ZM65 47.7922C66.6576 47.7922 68.2473 45.5915 69.4194 44.4194C70.5915 43.2473 71.25 41.6576 71.25 40C71.25 38.3424 70.5915 36.7527 69.4194 35.5806C68.2473 34.4085 66.6576 33.75 65 33.75C63.3424 33.75 61.7527 34.4085 60.5806 35.5806C59.4085 36.7527 58.75 38.3424 58.75 40C58.75 41.6576 59.4085 43.2473 60.5806 44.4194C61.7527 45.5915 63.3424 47.7922 65 47.7922ZM7.5 35H10V65H7.5C3.35938 65 0 61.6406 0 57.5V42.5C0 38.3594 3.35938 35 7.5 35ZM92.5 35C96.6406 35 100 38.3594 100 42.5V57.5C100 61.6406 96.6406 65 92.5 65H90V35H92.5Z" fill="#6E2463"/>
</g>
<defs>
<clipPath id="clip0_414_14">
<rect width="100" height="80" fill="white"/>
</clipPath>
</defs>
</svg>
